<?xml version="1.0" standalone="no"?>
<!DOCTYPE svg PUBLIC "-//W3C//DTD SVG 20010904//EN"
 "http://www.w3.org/TR/2001/REC-SVG-20010904/DTD/svg10.dtd">
<svg version="1.0" xmlns="http://www.w3.org/2000/svg"
 width="120.000000pt" height="120.000000pt" viewBox="0 0 120.000000 120.000000"
 preserveAspectRatio="xMidYMid meet">
<metadata>
Created by potrace 1.14, written by Peter Selinger 2001-2017
</metadata>
<g transform="translate(0.000000,120.000000) scale(0.100000,-0.100000)"
fill="#000000" stroke="none">
<path d="M475 1170 c-45 -17 -58 -65 -37 -136 13 -42 9 -150 -8 -199 -20 -59
-65 -128 -110 -168 -37 -32 -43 -34 -82 -27 -23 5 -66 7 -95 6 -58 -1 -71 -13
-104 -86 -18 -39 -20 -174 -4 -235 14 -54 65 -150 91 -168 35 -26 52 -27 111
-5 55 20 101 25 143 15 57 -14 111 -23 185 -33 28 -3 79 -13 115 -20 36 -8 76
-17 90 -20 14 -2 39 -9 55 -14 67 -21 254 -57 284 -55 32 3 56 25 73 67 12 29
-40 71 -113 91 -35 10 -70 19 -76 19 -17 2 -16 15 0 25 45 27 56 113 19 141
-15 11 -15 14 -2 22 8 5 18 10 22 10 4 0 15 14 23 31 19 36 12 84 -17 115 -19
22 -19 22 0 40 34 33 42 58 31 97 -11 41 -35 60 -134 108 -60 29 -80 33 -145
33 -41 0 -91 -3 -111 -7 l-37 -8 6 43 c6 49 6 176 -1 198 -14 50 -34 76 -77
102 -34 21 -71 28 -95 18z"/>
</g>
</svg>
